<?xml version="1.0"?>
<svg xmlns="http://www.w3.org/2000/svg" xmlns:xlink="http://www.w3.org/1999/xlink" version="1.1" id="Layer_1" x="0px" y="0px" viewBox="0 0 512 512" style="enable-background:new 0 0 512 512;" xml:space="preserve" width="512px" height="512px" class=""><g><path style="fill:#9E9E9E" d="M430.519,83.731c-2.067,0-4.111,0.096-6.125,0.288c-4.543,0.567-8.817-2.336-10.269-6.673  c-9.803-29.308-38.259-49-70.817-49c-40.938,0-74.245,31.471-74.245,70.154c0,2.692-1.101,5.298-3.048,7.164  c-1.942,1.856-4.567,2.875-7.255,2.75c-27.962-1.212-51.99,20.865-51.99,48.548c0,25.894,20.529,47.221,46.74,48.548  c0.245,0.019,0.486,0.038,0.731,0.067h172.015c0.375-0.048,0.755-0.067,1.139-0.067c0.149,0,0.298,0,0.447,0.01  c0.884,0.038,1.779,0.058,2.678,0.058c34.072,0,61.789-27.327,61.789-60.923S464.591,83.731,430.519,83.731z" data-original="#81A4E3" class="" data-old_color="#9e9e9e"/><g>
	<path style="fill:#9E9E9E" d="M430.101,64.038c-14.442-33.413-48.399-55.385-86.793-55.385c-48.394,0-88.361,35.183-93.399,80.269   c-35.168,3.115-62.832,32.442-62.832,68.038c0,35.942,28.038,65.615,64.077,68.135c0.601,0.115,1.212,0.173,1.832,0.173h174.418   c0.264,0,0.524-0.01,0.784-0.029c0.774,0.019,1.553,0.029,2.332,0.029c44.928,0,81.481-36.163,81.481-80.615   C512,100.067,475.101,63.837,430.101,64.038z M430.519,205.577c-0.899,0-1.793-0.019-2.678-0.058   c-0.149-0.01-0.298-0.01-0.447-0.01c-0.385,0-0.764,0.019-1.139,0.067H254.24c-0.245-0.029-0.486-0.048-0.731-0.067   c-26.211-1.327-46.74-22.654-46.74-48.548c0-27.683,24.029-49.76,51.99-48.548c2.688,0.125,5.313-0.894,7.255-2.75   c1.947-1.865,3.048-4.471,3.048-7.164c0-38.683,33.308-70.154,74.245-70.154c32.558,0,61.014,19.692,70.817,49   c1.452,4.336,5.726,7.24,10.269,6.673c2.015-0.192,4.058-0.288,6.125-0.288c34.072,0,61.788,27.328,61.788,60.924   S464.591,205.577,430.519,205.577z" data-original="#314E55" class="active-path" data-old_color="#9e9e9e"/>
	<path style="fill:#9E9E9E" d="M242.077,331.885L256,345.808L290.813,311c1.846-1.846,2.885-4.346,2.885-6.961   s-1.039-5.115-2.885-6.961L256,262.269l-13.923,13.923l18,18H0v19.692h260.077L242.077,331.885z" data-original="#314E55" class="active-path" data-old_color="#9e9e9e"/>
	<path style="fill:#9E9E9E" d="M423.385,419.808l-13.923,13.923l18,18H167.385v19.692h260.077l-18,18l13.923,13.923l34.813-34.808   c1.846-1.846,2.885-4.346,2.885-6.961s-1.039-5.115-2.885-6.961L423.385,419.808z" data-original="#314E55" class="active-path" data-old_color="#9e9e9e"/>
	<path style="fill:#9E9E9E" d="M320.846,410.654l13.923,13.923l34.813-34.808c1.846-1.846,2.885-4.346,2.885-6.961   s-1.039-5.115-2.885-6.961l-34.813-34.808l-13.923,13.923l18,18H78.769v19.692h260.077L320.846,410.654z" data-original="#314E55" class="active-path" data-old_color="#9e9e9e"/>
</g></g> </svg>
